<svg width="56" height="56" viewBox="0 0 56 56" fill="none" xmlns="http://www.w3.org/2000/svg">
<rect width="8" height="8" fill="#908C8A"/>
<rect x="16" width="8" height="8" fill="#908C8A"/>
<rect x="32" width="8" height="8" fill="#908C8A"/>
<rect x="48" width="8" height="8" fill="#908C8A"/>
<rect y="16" width="8" height="8" fill="#908C8A"/>
<rect x="16" y="16" width="8" height="8" fill="#464444"/>
<rect x="24" y="16" width="8" height="8" fill="#464444"/>
<rect x="32" y="16" width="8" height="8" fill="#464444"/>
<rect x="48" y="16" width="8" height="8" fill="#908C8A"/>
<rect x="16" y="24" width="8" height="8" fill="#464444"/>
<rect x="32" y="24" width="8" height="8" fill="#464444"/>
<rect y="32" width="8" height="8" fill="#908C8A"/>
<rect x="16" y="32" width="8" height="8" fill="#464444"/>
<rect x="24" y="32" width="8" height="8" fill="#464444"/>
<rect x="32" y="32" width="8" height="8" fill="#464444"/>
<rect x="48" y="32" width="8" height="8" fill="#908C8A"/>
<rect y="48" width="8" height="8" fill="#908C8A"/>
<rect x="16" y="48" width="8" height="8" fill="#908C8A"/>
<rect x="32" y="48" width="8" height="8" fill="#908C8A"/>
<rect x="48" y="48" width="8" height="8" fill="#908C8A"/>
</svg>
