<svg width="32" height="32" viewBox="0 0 32 32" fill="none" xmlns="http://www.w3.org/2000/svg">
<path fill-rule="evenodd" clip-rule="evenodd" d="M4.80005 8.2998C4.80005 6.3668 6.36705 4.7998 8.30005 4.7998H23.7001C25.6331 4.7998 27.2001 6.36681 27.2001 8.2998V23.6998C27.2001 25.6328 25.633 27.1998 23.7001 27.1998H8.30005C6.36705 27.1998 4.80005 25.6328 4.80005 23.6998V8.2998ZM22.4 15.9998C22.4 19.5344 19.5347 22.3998 16 22.3998C12.4654 22.3998 9.60005 19.5344 9.60005 15.9998C9.60005 12.4652 12.4654 9.5998 16 9.5998C19.5347 9.5998 22.4 12.4652 22.4 15.9998ZM22.8 10.3998C23.4628 10.3998 24 9.86255 24 9.1998C24 8.53706 23.4628 7.9998 22.8 7.9998C22.1373 7.9998 21.6 8.53706 21.6 9.1998C21.6 9.86255 22.1373 10.3998 22.8 10.3998Z" fill="#ADAAA9"/>
<circle cx="16" cy="16.0002" r="4.8" fill="#ADAAA9"/>
</svg>
