<svg width="32" height="32" viewBox="0 0 32 32" fill="none" xmlns="http://www.w3.org/2000/svg">
<path fill-rule="evenodd" clip-rule="evenodd" d="M4.7998 8.30005C4.7998 6.36705 6.36681 4.80005 8.2998 4.80005H23.6998C25.6328 4.80005 27.1998 6.36705 27.1998 8.30005V23.7001C27.1998 25.6331 25.6328 27.2001 23.6998 27.2001H8.2998C6.3668 27.2001 4.7998 25.633 4.7998 23.7001V8.30005ZM22.3998 16C22.3998 19.5347 19.5344 22.4 15.9998 22.4C12.4652 22.4 9.5998 19.5347 9.5998 16C9.5998 12.4654 12.4652 9.60005 15.9998 9.60005C19.5344 9.60005 22.3998 12.4654 22.3998 16ZM22.7998 10.4C23.4625 10.4 23.9998 9.86279 23.9998 9.20005C23.9998 8.53731 23.4625 8.00005 22.7998 8.00005C22.1371 8.00005 21.5998 8.53731 21.5998 9.20005C21.5998 9.86279 22.1371 10.4 22.7998 10.4Z" fill="black"/>
<circle cx="16.0002" cy="16" r="4.8" fill="black"/>
</svg>
