<svg width="20" height="32" viewBox="0 0 20 32" fill="none" xmlns="http://www.w3.org/2000/svg">
<mask id="mask0_660_2394" style="mask-type:luminance" maskUnits="userSpaceOnUse" x="0" y="0" width="20" height="32">
<path d="M20 0H0V32H20V0Z" fill="white"/>
</mask>
<g mask="url(#mask0_660_2394)">
<path d="M5.90292 16.3582C5.89721 16.3805 5.88931 16.3987 5.87981 16.4129L5.90292 16.3582C5.96885 16.1026 5.753 15.2991 4.41271 13.6707C2.59116 11.4576 3.03265 8.60002 5.44812 6.53979C5.0646 7.17166 4.63195 8.97605 5.96962 11.139C7.03487 12.8615 7.1757 13.3299 7.11207 13.5041L5.90292 16.3582Z" fill="#C48A59"/>
<path d="M8.61544 11.2845C8.60479 11.308 8.59258 11.3264 8.57938 11.3401L8.61544 11.2845C8.73757 11.0152 8.65429 10.0811 7.48847 8.00001C5.90406 5.17173 6.94302 2.10102 10.008 0.323242C9.4625 0.942771 8.63653 2.84984 9.69627 5.52189C10.5402 7.64984 10.6054 8.19756 10.5015 8.37711L8.61544 11.2845Z" fill="#F7EDE4"/>
<path d="M4.23452 20.0497C4.23356 20.0655 4.23062 20.0788 4.22609 20.0896L4.23452 20.0497C4.24554 19.8683 3.99617 19.357 2.88463 18.4455C1.37398 17.2067 1.29889 15.2208 2.65271 13.4988C2.47737 13.9774 2.42149 15.2528 3.60074 16.5247C4.53986 17.5376 4.69531 17.8336 4.67523 17.9598L4.23452 20.0497Z" fill="#F7EDE4"/>
<path d="M4.58854 24.6836C4.58896 24.6876 4.58896 24.691 4.58854 24.6939V24.6836C4.57254 24.5313 3.94011 23.6268 2.63057 23.0567C0.96128 22.33 0.825883 20.6525 1.42877 18.936C1.38887 19.3389 1.64412 20.8238 2.8529 21.4372C3.92232 21.9798 4.57994 22.8392 4.58939 22.9399L4.58854 24.6836Z" fill="#C48A59"/>
<path d="M7.32489 12.9292C1.66255 20.1481 4.83136 25.239 7.03923 31.973C5.63663 21.9258 6.30406 19.8062 11.8184 14.5723C16.4159 10.2087 12.589 2.33437 10.1561 0.0268555C11.3855 1.42753 12.5612 6.2535 7.32489 12.9292Z" fill="#C48A59"/>
<path d="M11.5069 16.6464C6.35594 21.0141 7.83761 28.5903 8.67563 31.9152C8.78301 23.9944 11.0549 22.8958 15.1173 18.8283C18.8835 15.0572 16.7526 8.81834 14.5718 7.11108C15.3202 8.3363 16.2082 12.6601 11.5069 16.6464Z" fill="#F7EDE4"/>
<path d="M14.8314 21.1986C11.1431 24.1077 10.6236 26.074 10.4277 32.0818C11.4485 26.5305 12.456 26.4084 16.1204 23.9068C19.7847 21.4052 18.9351 17.2444 18.1041 15.5959C18.4837 16.5528 18.8003 18.0682 14.8314 21.1986Z" fill="#C48A59"/>
</g>
</svg>
