<svg width="18" height="32" viewBox="0 0 18 32" fill="none" xmlns="http://www.w3.org/2000/svg">
<path d="M4.90292 16.3582C4.89721 16.3805 4.88931 16.3987 4.87981 16.4129L4.90292 16.3582C4.96885 16.1026 4.753 15.2991 3.41271 13.6707C1.59116 11.4576 2.03265 8.60002 4.44812 6.53979C4.0646 7.17166 3.63195 8.97605 4.96962 11.139C6.03487 12.8615 6.1757 13.3299 6.11207 13.5041L4.90292 16.3582Z" fill="#C48A59"/>
<path d="M7.61544 11.2845C7.60479 11.308 7.59258 11.3264 7.57938 11.3401L7.61544 11.2845C7.73757 11.0152 7.65429 10.0811 6.48847 8.00001C4.90406 5.17173 5.94302 2.10102 9.00795 0.323242C8.4625 0.942771 7.63653 2.84984 8.69627 5.52189C9.54021 7.64984 9.60536 8.19756 9.50146 8.37711L7.61544 11.2845Z" fill="#311C21"/>
<path d="M3.23452 20.0497C3.23356 20.0655 3.23062 20.0788 3.22609 20.0896L3.23452 20.0497C3.24554 19.8683 2.99617 19.357 1.88463 18.4455C0.373977 17.2067 0.298886 15.2208 1.65271 13.4988C1.47737 13.9774 1.42149 15.2528 2.60074 16.5247C3.53986 17.5376 3.69531 17.8336 3.67523 17.9598L3.23452 20.0497Z" fill="#311C21"/>
<path d="M3.58854 24.6836C3.58896 24.6876 3.58896 24.691 3.58854 24.6939V24.6836C3.57254 24.5313 2.94011 23.6268 1.63057 23.0567C-0.03872 22.33 -0.174117 20.6525 0.428771 18.936C0.38887 19.3389 0.644116 20.8238 1.8529 21.4372C2.92232 21.9798 3.57994 22.8392 3.58939 22.9399L3.58854 24.6836Z" fill="#C48A59"/>
<path d="M6.32489 12.9292C0.662554 20.1481 3.83136 25.239 6.03923 31.973C4.63663 21.9258 5.30406 19.8062 10.8184 14.5723C15.4159 10.2087 11.589 2.33437 9.15611 0.0268555C10.3855 1.42753 11.5612 6.2535 6.32489 12.9292Z" fill="#C48A59"/>
<path d="M10.5069 16.6464C5.35594 21.0141 6.83761 28.5903 7.67563 31.9152C7.78301 23.9944 10.0549 22.8958 14.1173 18.8283C17.8835 15.0572 15.7526 8.81834 13.5718 7.11108C14.3202 8.3363 15.2082 12.6601 10.5069 16.6464Z" fill="#311C21"/>
<path d="M13.8314 21.1986C10.1431 24.1077 9.62358 26.074 9.42773 32.0818C10.4485 26.5305 11.456 26.4084 15.1204 23.9068C18.7847 21.4052 17.9351 17.2444 17.1041 15.5959C17.4837 16.5528 17.8003 18.0682 13.8314 21.1986Z" fill="#C48A59"/>
</svg>
