<svg width="28" height="28" viewBox="0 0 28 28" fill="none" xmlns="http://www.w3.org/2000/svg">
<path d="M14.0002 18.41C16.8313 18.41 19.1243 16.1546 19.1243 13.37V6.43999C19.1243 3.65539 16.8313 1.39999 14.0002 1.39999C11.169 1.39999 8.87598 3.65539 8.87598 6.43999V13.37C8.87598 16.1546 11.169 18.41 14.0002 18.41Z" stroke="white" stroke-width="1.5" stroke-linecap="round" stroke-linejoin="round"/>
<path d="M4.2002 11.039V13.181C4.2002 18.4982 8.59418 22.82 14.0002 22.82C19.4062 22.82 23.8002 18.4982 23.8002 13.181V11.039" stroke="white" stroke-width="1.5" stroke-linecap="round" stroke-linejoin="round"/>
<path d="M12.2192 6.9817C13.3722 6.5659 14.6276 6.5659 15.7805 6.9817" stroke="white" stroke-width="1.5" stroke-linecap="round" stroke-linejoin="round"/>
<path d="M12.9756 9.65302C13.6545 9.47662 14.3591 9.47662 15.0381 9.65302" stroke="white" stroke-width="1.5" stroke-linecap="round" stroke-linejoin="round"/>
<path d="M14 22.8201V26.6001" stroke="white" stroke-width="1.5" stroke-linecap="round" stroke-linejoin="round"/>
</svg>
