<svg width="25" height="24" viewBox="0 0 25 24" fill="none" xmlns="http://www.w3.org/2000/svg">
<g clip-path="url(#clip0_422_5436)">
<path d="M23.997 13C23.9991 13.2638 23.9189 13.5218 23.7676 13.7379C23.6164 13.9541 23.4016 14.1177 23.153 14.2061L19.808 15.4229C18.696 15.8274 17.8202 16.7035 17.416 17.8156L16.2 21.1612C16.1087 21.4074 15.9442 21.6197 15.7287 21.7697C15.5131 21.9196 15.2569 22 14.9943 22C14.7318 22 14.4755 21.9196 14.26 21.7697C14.0445 21.6197 13.88 21.4074 13.7886 21.1612L12.5728 17.8152C12.1685 16.7029 11.2924 15.8266 10.1801 15.4222L6.83563 14.2061C6.5895 14.1147 6.37722 13.9502 6.22732 13.7346C6.07742 13.5189 5.99707 13.2626 5.99707 13C5.99707 12.7374 6.07742 12.4811 6.22732 12.2655C6.37722 12.0498 6.5895 11.8853 6.83563 11.7939L10.1801 10.5778C11.2924 10.1734 12.1685 9.29714 12.5728 8.18475L13.7886 4.83881C13.88 4.59261 14.0445 4.38027 14.26 4.23032C14.4755 4.08037 14.7318 4 14.9943 4C15.2569 4 15.5131 4.08037 15.7287 4.23032C15.9442 4.38027 16.1087 4.59261 16.2 4.83881L17.4166 8.18528C17.8209 9.29736 18.6968 10.1734 19.8089 10.5778L23.153 11.7939C23.4016 11.8823 23.6164 12.0459 23.7676 12.2621C23.9189 12.4782 23.9991 12.7362 23.997 13Z" fill="black"/>
<path d="M8.99705 4C8.99796 4.11726 8.96233 4.23189 8.8951 4.32796C8.82787 4.42403 8.7324 4.49676 8.62194 4.53604L8.1099 4.7223C6.9979 5.1268 6.12206 6.00289 5.71788 7.115L5.53173 7.62719C5.49112 7.73662 5.41801 7.83099 5.32222 7.89763C5.22642 7.96428 5.11253 8 4.99585 8C4.87917 8 4.76528 7.96428 4.66948 7.89763C4.57369 7.83099 4.50058 7.73662 4.45998 7.62719L4.27389 7.11511C3.86967 6.00273 2.99358 5.12647 1.88128 4.72203L1.36976 4.53604C1.26037 4.49542 1.16603 4.42229 1.0994 4.32647C1.03278 4.23064 0.99707 4.11672 0.99707 4C0.99707 3.88328 1.03278 3.76936 1.0994 3.67353C1.16603 3.57771 1.26037 3.50458 1.36976 3.46396L1.88128 3.27797C2.99358 2.87353 3.86967 1.99727 4.27389 0.884888L4.45998 0.372805C4.50058 0.263381 4.57369 0.169008 4.66948 0.102364C4.76528 0.0357211 4.87917 0 4.99585 0C5.11253 0 5.22642 0.0357211 5.32222 0.102364C5.41801 0.169008 5.49112 0.263381 5.53173 0.372805L5.71808 0.885411C6.12236 1.99749 6.99828 2.8735 8.11031 3.2779L8.62194 3.46396C8.7324 3.50324 8.82787 3.57597 8.8951 3.67204C8.96233 3.76811 8.99796 3.88274 8.99705 4Z" fill="black"/>
<path d="M7.99706 21C7.99774 21.0879 7.97101 21.1739 7.92059 21.246C7.87017 21.318 7.79856 21.3726 7.71572 21.402C6.63831 21.794 5.78968 22.6429 5.39806 23.7204C5.36761 23.8025 5.31278 23.8732 5.24093 23.9232C5.16909 23.9732 5.08367 24 4.99616 24C4.90864 24 4.82323 23.9732 4.75138 23.9232C4.67954 23.8732 4.6247 23.8025 4.59425 23.7204C4.20272 22.6429 3.35398 21.7938 2.27659 21.402C2.19455 21.3716 2.12379 21.3167 2.07382 21.2448C2.02385 21.173 1.99707 21.0875 1.99707 21C1.99707 20.9125 2.02385 20.827 2.07382 20.7552C2.12379 20.6833 2.19455 20.6284 2.27659 20.598C3.35398 20.2062 4.20272 19.3571 4.59425 18.2796C4.6247 18.1975 4.67954 18.1268 4.75138 18.0768C4.82323 18.0268 4.90864 18 4.99616 18C5.08367 18 5.16909 18.0268 5.24093 18.0768C5.31278 18.1268 5.36761 18.1975 5.39806 18.2796C5.7897 19.3569 6.63848 20.2062 7.71572 20.598C7.79856 20.6274 7.87017 20.682 7.92059 20.754C7.97101 20.8261 7.99774 20.9121 7.99706 21Z" fill="black"/>
</g>
<defs>
<clipPath id="clip0_422_5436">
<rect width="24" height="24" fill="white" transform="translate(0.333008)"/>
</clipPath>
</defs>
</svg>
